# xmcd
#
# Track frame offsets:
#	150
#	18652
#	35554
#	50598
#	73729
#	87949
#	103092
#	115776
#	129547
#	142997
#	159152
#	172938
#	189098
#	205601
#	221303
#	235976
#	253419
#	265345
#	280155
#
# Disc length: 3962 seconds
#
# Revision: 1
# Processed by: cddbd v1.5.2PL0 Copyright (c) Steve Scherf et al.
# Submitted via: audiograbber 1.83.01
#
DISCID=0d0f7813
DTITLE=Various Artist - COUNTRY OCT 2015
DYEAR=2015
DGENRE=Country
TTITLE0=BAND PERRY THE - LIKE FOREVER
TTITLE1=TIM MCGRAW - TOP OF THE WORLD
TTITLE2=RACHELE LYNAE - QUICKSAND
TTITLE3=REBA MCENTIRE - UNTIL THEY DON'T LOVE YOU
TTITLE4=KAYLA CALABRESE - GIVE
TTITLE5=SCOTTY MCCREERY - SOUTHERN BELLE
TTITLE6=DENNY STICKLAND - HOW FAR YOU WANNA GO
TTITLE7=BLAKE SHELTON - GONNA
TTITLE8=TYLAR FAR - BETTER IN BOOTS
TTITLE9=HOMEGROWN BAND - SHE LOVES TO RIDE
TTITLE10=RONNIE DUNN - HONKY TONK STOMP
TTITLE11=KACEY MUSGRAVES - DIME STORE COWIRL
TTITLE12=EMERSON DRIVE - TILL THE SUMMERS GONE
TTITLE13=CASSADEE POPE - I AM INVINCIBLE
TTITLE14=WILLIAM MICHAEL MORGAN - I MET A GIRL
TTITLE15=JASON ALDEAN - GONNA KNOW WE WERE HERE
TTITLE16=CANAAN SMITH - HOLE IN THE BOTTLE
TTITLE17=COOL CONNIE - WHISKEY BOTTLE CRY
TTITLE18=ZAC BROWN BAND - HOMEGROWN
EXTD=
EXTT0=
EXTT1=
EXTT2=
EXTT3=
EXTT4=
EXTT5=
EXTT6=
EXTT7=
EXTT8=
EXTT9=
EXTT10=
EXTT11=
EXTT12=
EXTT13=
EXTT14=
EXTT15=
EXTT16=
EXTT17=
EXTT18=
PLAYORDER=
